{"glyphs":{"0":{"ha":1597,"x_min":34,"x_max":1516,"o":"m 302 69 q 70 399 140 183 q 37 669 34 534 q 871 1520 111 1472 q 1385 1306 1183 1546 q 1497 982 1480 1161 q 1451 575 1516 786 q 1230 210 1368 345 q 302 69 793 -200 m 1031 861 q 803 1012 979 1024 q 560 890 653 1007 q 508 594 458 741 q 744 451 589 433 q 1013 675 929 484 q 1031 861 1052 776 z "},"1":{"ha":984,"x_min":34,"x_max":903,"o":"m 890 1520 q 893 34 903 1487 q 398 -8 631 -16 q 393 863 385 434 l 286 768 q 34 1043 87 963 l 410 1479 q 890 1520 448 1501 z "},"2":{"ha":1297,"x_min":34,"x_max":1215,"o":"m 694 899 q 667 1015 704 979 q 114 917 528 1174 q 34 1265 81 946 q 845 1462 394 1586 q 1186 988 1181 1324 l 1187 989 q 774 418 1185 640 q 1203 454 1188 464 q 1200 45 1215 152 q 73 -56 658 -14 q 66 353 54 98 q 633 752 477 542 q 694 899 690 829 z "},"3":{"ha":1318,"x_min":34,"x_max":1237,"o":"m 356 -54 q 51 -29 238 -62 l 115 332 q 701 488 722 314 q 594 568 682 559 q 305 560 498 580 l 305 865 q 627 1022 644 890 q 546 1099 619 1086 q 117 1034 435 1135 l 34 1369 q 337 1480 140 1430 q 1132 1242 903 1602 q 970 787 1237 1011 q 1232 488 1232 670 q 1092 176 1231 306 q 356 -54 881 -30 z "},"4":{"ha":1225,"x_min":34,"x_max":1144,"o":"m 655 1544 q 1011 1320 837 1459 q 618 777 827 1066 q 1133 821 1086 824 q 1136 435 1144 631 l 873 410 q 871 24 878 109 q 456 -16 659 -14 q 454 363 455 138 q 51 328 179 339 q 50 726 34 502 q 655 1544 374 1133 z "},"5":{"ha":1296,"x_min":34,"x_max":1297,"o":"m 446 1094 l 445 996 q 696 1059 523 1058 q 1158 781 1050 1068 q 938 46 1297 309 q 458 -54 726 -73 q 34 77 176 -34 q 167 407 133 374 q 762 545 765 247 q 619 706 758 675 q 443 632 497 730 l 92 599 q 90 1410 74 935 q 1146 1518 150 1435 q 1149 1158 1156 1356 q 446 1094 1096 1150 z "},"6":{"ha":1363,"x_min":-62,"x_max":1307,"o":"m 1163 1547 q 1154 1154 1166 1293 q 664 1104 814 1198 q 505 889 490 968 q 907 977 651 1000 q 1244 676 1180 948 q 1073 103 1307 288 q 300 55 707 -163 q 94 970 -62 330 q 378 1390 182 1259 q 1163 1547 731 1613 m 539 446 q 653 314 547 325 q 870 401 814 294 q 772 641 947 620 q 539 446 559 649 z "},"7":{"ha":1197,"x_min":34,"x_max":1116,"o":"m 911 827 q 602 4 602 358 q 180 -30 384 -31 q 436 805 203 459 q 587 1093 559 984 l 52 1045 q 50 1423 34 1221 q 1105 1520 751 1518 q 1107 1160 1116 1378 q 911 827 1048 1023 z "},"8":{"ha":1370,"x_min":-96,"x_max":1289,"o":"m 811 1528 q 1208 1169 1179 1477 q 929 788 1221 968 q 1270 489 1217 738 q 1048 98 1289 283 q 439 -33 748 -81 q 130 116 235 -9 q 254 711 -96 395 q 73 1037 75 829 q 266 1364 71 1194 q 811 1528 507 1540 m 560 922 q 774 985 692 888 q 700 1141 821 1112 q 509 1048 574 1156 q 560 922 498 945 m 543 294 q 817 361 703 241 q 747 560 892 515 q 498 456 594 587 q 543 294 468 326 z "},"9":{"ha":1345,"x_min":22,"x_max":1369,"o":"m 119 258 q 624 491 474 351 q 271 519 437 454 q 47 962 22 675 q 441 1482 112 1361 q 1112 1270 849 1600 q 1074 378 1369 847 q 245 -120 872 83 q 119 258 174 9 m 770 963 q 706 1128 801 1084 q 479 1112 564 1198 q 494 846 358 945 q 770 963 688 771 z "}," ":{"ha":781,"x_min":0,"x_max":0,"o":""},"!":{"ha":612,"x_min":34,"x_max":531,"o":"m 173 -45 q 105 -35 173 -45 q 39 122 38 -24 q 179 314 54 252 q 404 337 304 376 q 505 140 530 270 q 397 -9 477 41 q 173 -45 308 -65 m 531 1508 q 476 422 498 730 q 106 385 290 398 q 71 380 106 373 q 34 1459 47 721 q 531 1508 308 1501 z "},"\"":{"ha":1071,"x_min":34,"x_max":989,"o":"m 296 952 q 34 1061 165 989 q 314 1624 140 1305 l 568 1511 q 296 952 533 1388 m 717 990 q 455 1099 586 1027 q 735 1662 562 1342 l 989 1549 q 717 990 954 1426 z "},"#":{"ha":1457,"x_min":34,"x_max":1376,"o":"m 241 667 q 256 732 248 699 q 127 722 193 727 l 127 1078 q 336 1105 146 1086 q 408 1434 370 1259 q 784 1482 539 1493 q 715 1142 779 1439 l 843 1154 q 914 1480 876 1307 q 1290 1527 1045 1539 q 1221 1187 1285 1484 q 1356 1198 1286 1192 q 1361 836 1376 1047 q 1139 810 1345 831 q 1125 749 1133 781 q 1263 760 1192 755 q 1268 398 1283 610 q 1042 372 1253 393 q 960 9 1004 203 q 593 -26 946 6 q 667 338 593 -5 q 536 327 604 332 q 454 -36 498 157 q 87 -72 440 -39 q 161 295 87 -51 q 34 284 100 290 l 34 640 q 241 667 53 648 m 633 765 q 620 705 627 735 q 748 715 680 709 q 761 776 754 745 q 633 765 700 770 z "},"$":{"ha":1357,"x_min":34,"x_max":1305,"o":"m 493 1492 q 492 1676 492 1565 q 825 1710 600 1697 q 829 1510 833 1695 q 1196 1422 996 1490 l 1108 1045 q 532 993 502 1174 q 652 930 549 919 q 837 937 750 940 q 1067 873 976 936 q 1219 695 1193 787 q 1160 203 1305 427 q 830 -23 1040 30 q 827 -212 830 -97 q 500 -243 814 -214 q 492 -39 493 -236 q 79 60 307 -18 l 167 433 q 807 479 831 312 q 687 541 790 551 q 501 534 595 534 q 272 598 363 536 q 119 777 146 684 q 178 1269 34 1045 q 493 1492 296 1438 z "},"%":{"ha":1299,"x_min":34,"x_max":1218,"o":"m 1166 1550 q 496 -47 1133 1446 q 129 -83 481 -50 q 787 1501 140 -37 q 1166 1550 929 1563 m 165 1337 q 280 1420 205 1386 q 412 1447 348 1447 q 526 1420 473 1447 q 614 1251 614 1358 q 357 951 621 1000 q 266 954 311 945 q 146 1022 190 970 q 165 1337 34 1177 m 355 1229 q 326 1185 328 1213 q 349 1156 324 1165 q 385 1166 367 1149 q 399 1205 400 1181 q 378 1234 398 1230 q 355 1229 368 1236 m 762 417 q 877 500 802 467 q 1008 528 945 528 q 1122 500 1069 528 q 1211 332 1211 439 q 954 31 1218 80 q 863 34 908 26 q 743 102 787 50 q 762 417 631 257 m 951 309 q 922 265 924 294 q 946 237 921 245 q 981 247 964 231 q 996 286 997 262 q 975 315 995 310 q 951 309 965 317 z "},"&":{"ha":1674,"x_min":34,"x_max":1592,"o":"m 828 1509 q 1094 1381 986 1497 q 1190 1179 1186 1269 q 909 791 1211 925 q 1141 632 1003 705 q 1355 838 1309 766 q 1585 630 1592 682 l 1376 440 q 1584 204 1516 338 q 1361 -12 1488 88 q 1132 212 1255 119 q 937 68 1080 169 q 480 -68 703 -85 q 63 268 145 -60 q 176 648 34 500 q 342 802 261 744 q 235 1169 191 971 q 503 1456 271 1331 q 828 1509 690 1533 m 700 985 q 745 1152 877 1073 q 621 1071 622 1171 q 700 985 624 1015 m 476 397 q 588 302 479 303 q 825 410 701 297 q 623 567 716 505 q 476 397 449 493 z "},"'":{"ha":650,"x_min":34,"x_max":568,"o":"m 296 971 q 34 1080 165 1008 q 314 1643 140 1324 l 568 1530 q 296 971 533 1407 z "},"(":{"ha":982,"x_min":34,"x_max":901,"o":"m 470 -290 q 227 -73 333 -221 q 106 179 146 45 q 36 701 34 439 q 141 1280 35 1017 q 391 1680 250 1538 q 893 1896 620 1885 l 893 1560 q 462 720 441 1322 q 899 -2 449 102 l 901 -342 q 470 -290 647 -380 z "},")":{"ha":982,"x_min":34,"x_max":901,"o":"m 465 1765 q 707 1550 602 1697 q 829 1297 787 1432 q 898 775 901 1037 q 793 197 899 460 q 543 -203 684 -62 q 41 -420 314 -408 l 41 -84 q 472 755 493 154 q 35 1478 486 1373 l 34 1817 q 465 1765 288 1856 z "},"*":{"ha":1143,"x_min":34,"x_max":1062,"o":"m 704 893 q 703 681 704 801 q 391 656 563 657 q 389 869 389 778 q 212 728 312 808 q 34 970 121 829 q 270 1160 161 1072 q 34 1308 161 1227 q 211 1581 121 1463 q 389 1472 312 1520 q 391 1698 389 1565 l 695 1725 q 700 1501 699 1598 q 878 1641 777 1562 l 1062 1414 q 811 1208 926 1301 q 1062 1048 926 1136 l 878 789 q 704 893 779 847 z "},"+":{"ha":1061,"x_min":34,"x_max":980,"o":"m 694 918 q 965 941 818 928 q 968 566 980 785 q 694 536 953 560 q 693 266 694 412 q 318 229 535 237 q 312 503 313 243 q 34 479 185 492 l 34 847 q 313 883 54 858 q 315 1162 314 1010 l 683 1196 q 694 918 692 1177 z "},",":{"ha":650,"x_min":34,"x_max":568,"o":"m 296 -361 q 34 -252 165 -323 q 314 311 140 -8 l 568 198 q 296 -361 533 75 z "},"-":{"ha":1061,"x_min":34,"x_max":980,"o":"m 965 941 q 968 566 980 785 q 34 479 939 554 l 34 847 q 965 941 71 867 z "},".":{"ha":607,"x_min":34,"x_max":526,"o":"m 169 -58 q 101 -47 169 -58 q 35 109 34 -37 q 175 301 50 239 q 399 324 300 363 q 500 127 526 256 q 393 -22 473 27 q 169 -58 304 -78 z "},"/":{"ha":1218,"x_min":34,"x_max":1137,"o":"m 1137 1548 q 467 -50 1103 1444 q 34 -85 452 -53 q 692 1499 45 -39 q 1137 1548 1004 1557 z "},":":{"ha":607,"x_min":34,"x_max":526,"o":"m 169 -58 q 101 -47 169 -58 q 35 109 34 -37 q 175 301 50 239 q 399 324 300 363 q 500 127 526 256 q 393 -22 473 27 q 169 -58 304 -78 m 169 510 q 101 520 169 510 q 35 676 34 530 q 175 869 50 807 q 399 892 300 931 q 500 695 526 824 q 393 545 473 595 q 169 510 304 490 z "},";":{"ha":717,"x_min":34,"x_max":635,"o":"m 279 515 q 211 525 279 515 q 145 682 144 536 q 284 874 159 812 q 509 897 410 936 q 610 700 635 829 q 503 550 583 600 q 279 515 414 494 m 296 -363 q 34 -255 165 -327 q 314 307 140 -12 l 568 195 q 296 -363 533 71 z "},"<":{"ha":1229,"x_min":34,"x_max":1147,"o":"m 1031 1316 q 1133 863 1111 1152 q 715 692 962 799 q 1147 616 954 654 l 1039 161 q 58 378 418 287 q 57 877 34 688 q 1031 1316 722 1188 z "},"=":{"ha":1061,"x_min":34,"x_max":980,"o":"m 965 654 q 968 279 980 498 q 34 193 939 267 l 34 560 q 965 654 71 580 m 965 1228 q 968 853 980 1072 q 34 766 939 841 l 34 1134 q 965 1228 71 1154 z "},">":{"ha":1229,"x_min":34,"x_max":1147,"o":"m 151 81 q 48 535 71 246 q 466 705 219 599 q 34 781 228 744 l 142 1236 q 1124 1020 764 1111 q 1124 521 1147 710 q 151 81 459 209 z "},"?":{"ha":1442,"x_min":34,"x_max":1360,"o":"m 958 1509 q 1341 1004 1360 1369 q 829 528 1308 694 q 822 372 823 490 q 398 338 596 349 q 395 785 393 435 q 715 864 591 805 q 844 1074 964 970 q 124 958 625 1223 q 34 1300 87 985 q 958 1509 450 1626 m 515 -69 q 448 -59 515 -69 q 382 97 380 -49 q 521 290 396 228 q 747 312 646 351 q 847 116 872 245 q 740 -34 819 16 q 515 -69 650 -90 z "},"@":{"ha":1620,"x_min":34,"x_max":1539,"o":"m 807 798 q 668 748 681 813 q 699 650 659 673 q 809 665 732 634 q 807 798 808 718 m 829 460 q 656 463 732 450 q 481 691 485 496 q 687 980 484 914 q 807 987 763 1005 l 807 1013 q 1013 1031 814 1015 q 1018 704 1018 1023 q 1115 727 1086 665 q 1137 911 1165 791 q 828 1122 1066 1139 q 499 953 625 1116 q 429 540 360 745 q 897 346 538 315 q 927 39 955 221 q 302 68 504 -90 q 70 399 140 182 q 37 667 34 532 q 871 1518 111 1470 q 1385 1305 1183 1546 q 1497 981 1480 1160 q 1286 422 1539 578 q 829 460 1082 303 z "},"A":{"ha":1518,"x_min":34,"x_max":1436,"o":"m 534 106 q 498 -60 516 23 q 34 -30 158 -81 q 450 1442 330 1080 q 949 1488 728 1506 q 1436 83 1200 840 q 959 -24 1326 21 q 911 138 935 60 q 534 106 760 125 m 800 512 q 705 802 743 693 q 627 496 664 648 l 800 512 z "},"B":{"ha":1374,"x_min":34,"x_max":1293,"o":"m 52 1367 q 530 1487 219 1449 q 1189 1245 1033 1539 q 1042 791 1284 1013 q 1292 494 1293 676 q 1190 219 1291 312 q 1073 127 1137 163 q 433 -47 798 -31 q 54 -58 327 -57 q 52 1367 34 625 m 438 891 q 721 1028 738 891 q 648 1106 714 1092 q 430 1086 553 1118 q 438 891 429 987 m 435 334 q 788 494 795 321 q 691 574 772 564 q 429 538 594 588 q 435 334 427 427 z "},"C":{"ha":1343,"x_min":34,"x_max":1261,"o":"m 984 960 q 763 1022 874 1021 q 513 835 609 1012 q 539 547 449 678 q 772 469 622 446 q 1019 585 893 497 q 1261 238 1112 500 q 1152 134 1227 199 q 722 -14 954 -3 q 34 675 36 -15 q 90 952 42 810 q 486 1419 199 1253 q 1152 1439 808 1589 q 1241 1384 1215 1402 q 984 960 1102 1093 z "},"D":{"ha":1355,"x_min":34,"x_max":1274,"o":"m 73 -26 q 65 1382 34 664 q 531 1492 182 1453 q 1151 1274 909 1535 q 1274 879 1260 1155 q 1076 238 1269 454 q 524 -33 882 22 q 73 -26 294 -68 m 467 1023 q 469 428 463 718 q 821 608 732 434 q 792 960 884 812 q 467 1023 710 1061 z "},"E":{"ha":1186,"x_min":34,"x_max":1105,"o":"m 1086 1520 q 1084 1115 1103 1310 l 486 1059 l 488 917 l 1062 966 l 1063 578 q 494 525 1028 570 l 494 391 q 1088 450 1052 453 q 1088 56 1105 213 q 56 -33 723 -1 q 53 1421 34 627 q 1086 1520 644 1504 z "},"F":{"ha":1180,"x_min":34,"x_max":1099,"o":"m 473 -9 q 50 -41 92 -48 q 55 1420 34 1359 q 1085 1516 583 1491 q 1084 1124 1099 1356 q 491 1063 1048 1114 l 490 896 q 1059 945 1025 947 l 1059 544 l 485 490 q 473 -9 492 33 z "},"G":{"ha":1538,"x_min":34,"x_max":1457,"o":"m 530 -26 q 85 372 224 33 q 62 768 34 543 q 194 1126 93 978 q 504 1417 315 1305 q 1381 1348 977 1664 l 1132 953 q 910 1016 1028 996 q 600 878 728 1042 q 533 701 536 791 q 692 430 515 513 q 974 549 932 396 q 693 529 707 525 q 695 870 684 729 q 1450 938 1418 947 q 1453 593 1457 743 q 1430 435 1455 511 q 530 -26 1226 -102 z "},"H":{"ha":1314,"x_min":34,"x_max":1232,"o":"m 518 391 q 513 -8 517 193 q 54 -52 309 -41 q 44 1419 34 474 q 510 1462 290 1465 q 519 833 517 1151 q 746 855 625 844 q 749 1482 746 1141 q 1215 1525 996 1529 q 1218 55 1232 808 q 760 12 1015 22 q 749 413 753 189 q 518 391 634 401 z "},"I":{"ha":608,"x_min":34,"x_max":527,"o":"m 510 1493 q 513 24 527 777 q 54 -20 309 -9 q 44 1450 34 506 q 510 1493 290 1497 z "},"J":{"ha":1416,"x_min":34,"x_max":1335,"o":"m 382 569 q 577 416 498 403 q 777 492 699 416 q 879 1488 926 593 q 1315 1525 1194 1544 q 1333 863 1335 1231 q 973 82 1317 305 q 595 -33 802 -30 q 303 18 425 -31 q 138 151 189 78 q 34 334 60 241 l 382 569 z "},"K":{"ha":1408,"x_min":34,"x_max":1326,"o":"m 968 761 q 1323 344 1079 637 q 991 -30 1227 206 q 650 377 972 -22 q 513 214 585 299 q 515 -15 511 90 q 48 -54 288 -50 q 51 1416 34 696 q 517 1457 271 1459 q 519 970 519 1198 q 955 1501 701 1192 q 1326 1210 1117 1413 q 968 761 1298 1162 z "},"L":{"ha":1151,"x_min":34,"x_max":1069,"o":"m 488 1467 l 490 410 q 1064 459 846 448 q 1060 47 1069 237 q 50 -47 701 -5 q 56 1430 34 612 q 488 1467 289 1480 z "},"M":{"ha":1723,"x_min":34,"x_max":1642,"o":"m 513 500 q 509 -27 512 267 q 60 -70 290 -61 q 50 1363 34 732 q 563 1489 339 1459 q 708 1141 612 1388 q 848 823 805 894 q 1120 1444 927 938 q 1622 1423 1343 1461 q 1624 -22 1642 814 q 1175 -64 1417 -54 q 1166 452 1168 -40 q 840 -134 863 -132 l 513 500 z "},"N":{"ha":1459,"x_min":34,"x_max":1378,"o":"m 47 1390 l 463 1492 q 895 865 655 1239 q 889 1460 882 1103 q 1356 1457 1205 1488 q 1356 35 1378 651 q 1006 -52 1139 -52 q 502 644 812 241 l 503 -51 q 47 -45 135 -68 q 47 1390 34 587 z "},"O":{"ha":1597,"x_min":34,"x_max":1516,"o":"m 302 69 q 70 399 140 183 q 37 669 34 534 q 871 1520 111 1472 q 1385 1306 1183 1546 q 1497 982 1480 1161 q 1451 575 1516 786 q 1230 210 1368 345 q 302 69 793 -200 m 1031 861 q 803 1012 979 1024 q 560 890 653 1007 q 508 594 458 741 q 744 451 589 433 q 1013 675 929 484 q 1031 861 1052 776 z "},"P":{"ha":1337,"x_min":34,"x_max":1255,"o":"m 517 648 q 833 822 804 675 q 762 1042 853 990 q 512 1050 690 1080 q 517 648 515 861 m 429 1466 q 861 1466 673 1495 q 1255 949 1245 1389 q 784 296 1249 446 q 515 259 683 264 q 513 -9 514 132 q 57 -53 326 -47 q 53 1404 34 743 q 429 1466 88 1428 z "},"Q":{"ha":1597,"x_min":34,"x_max":1516,"o":"m 1024 707 q 1031 861 1048 789 q 803 1011 979 1023 q 560 889 653 1006 q 508 593 458 741 q 724 448 583 442 q 647 568 688 505 l 959 790 q 1024 707 970 784 m 996 33 q 302 68 664 -144 q 70 399 140 182 q 37 668 34 533 q 871 1519 111 1471 q 1385 1305 1183 1546 q 1497 981 1480 1160 q 1451 574 1516 785 q 1302 292 1391 408 q 1421 110 1357 208 q 1105 -121 1295 1 q 996 33 1094 -113 z "},"R":{"ha":1348,"x_min":34,"x_max":1267,"o":"m 517 648 q 833 821 804 675 q 762 1042 853 989 q 512 1049 690 1079 q 517 648 515 860 m 1040 433 q 1267 132 1135 309 q 957 -122 1144 14 q 654 268 937 -109 q 515 258 591 260 q 513 -9 514 131 q 57 -54 326 -47 q 53 1404 34 742 q 429 1466 88 1428 q 861 1466 673 1495 q 1255 948 1245 1388 q 1040 433 1251 611 z "},"S":{"ha":1333,"x_min":9,"x_max":1280,"o":"m 477 534 q 248 598 338 536 q 95 777 121 684 q 154 1269 9 1045 q 1171 1422 435 1674 l 1084 1045 q 507 993 477 1174 q 628 930 525 919 q 812 937 726 940 q 1042 873 951 936 q 1195 695 1168 787 q 1136 203 1280 427 q 55 60 848 -209 l 142 433 q 783 479 806 312 q 663 541 766 551 q 477 534 570 534 z "},"T":{"ha":1424,"x_min":34,"x_max":1343,"o":"m 921 1053 q 918 22 930 382 q 454 -16 596 -27 q 450 1011 447 471 q 54 979 271 996 q 52 1419 34 1169 q 1334 1537 716 1496 q 1329 1097 1343 1333 q 921 1053 1282 1085 z "},"U":{"ha":1435,"x_min":34,"x_max":1354,"o":"m 1320 1526 q 1326 759 1354 1095 q 883 14 1286 201 q 498 -35 699 -63 q 76 577 166 50 q 98 1419 34 983 q 512 1466 302 1453 q 559 610 500 796 q 700 484 607 470 q 855 640 806 498 q 894 1496 907 842 q 1320 1526 1119 1529 z "},"V":{"ha":1518,"x_min":34,"x_max":1436,"o":"m 1436 1500 q 1021 28 1141 391 q 522 -18 742 -36 q 34 1387 270 630 q 511 1495 144 1449 q 765 668 681 909 q 972 1530 882 1103 q 1436 1500 1312 1550 z "},"W":{"ha":2148,"x_min":34,"x_max":2066,"o":"m 2066 1480 q 1703 0 1807 348 q 1219 -42 1381 -50 q 1063 493 1137 191 q 938 -5 989 171 q 454 -47 616 -56 q 34 1355 238 600 q 467 1465 195 1411 q 686 641 614 881 q 865 1457 787 1072 q 1230 1478 1053 1486 q 1451 632 1373 917 q 1632 1511 1552 1063 q 2066 1480 1924 1505 z "},"X":{"ha":1444,"x_min":34,"x_max":1362,"o":"m 409 711 q 34 1204 245 927 q 407 1512 125 1331 q 697 1141 440 1478 q 989 1565 972 1547 q 1362 1337 1233 1435 q 983 764 1149 1013 q 1362 257 1149 543 q 989 -37 1201 96 q 697 334 972 -24 q 407 -90 440 -50 q 34 151 125 41 q 409 711 245 467 z "},"Y":{"ha":1469,"x_min":34,"x_max":1388,"o":"m 549 -92 q 98 -9 149 -53 q 513 710 308 336 q 34 1192 262 951 l 389 1512 q 757 1156 539 1352 q 956 1539 864 1382 q 1388 1405 1234 1495 q 549 -92 935 526 z "},"Z":{"ha":1345,"x_min":34,"x_max":1263,"o":"m 45 -45 q 40 316 34 119 q 646 1037 366 734 q 57 990 274 998 q 55 1425 42 1118 q 1244 1529 736 1501 q 1247 1102 1263 1347 q 694 412 1018 799 q 1232 454 1145 458 q 1227 60 1244 248 q 45 -45 652 -9 z "},"[":{"ha":852,"x_min":34,"x_max":771,"o":"m 770 1885 q 768 1485 771 1647 l 482 1459 q 482 33 475 867 q 763 60 727 63 q 764 -328 765 -193 q 46 -397 703 -351 q 50 1817 34 429 q 770 1885 92 1832 z "},"\\":{"ha":1218,"x_min":34,"x_max":1137,"o":"m 34 1449 q 478 1480 166 1482 q 1137 14 1126 58 q 704 -28 719 -28 q 34 1449 67 1350 z "},"]":{"ha":852,"x_min":34,"x_max":771,"o":"m 35 -400 q 37 -1 34 -163 l 323 24 q 323 1451 330 617 q 42 1424 78 1421 q 41 1813 40 1677 q 759 1882 102 1835 q 755 -332 771 1055 q 35 -400 713 -347 z "},"^":{"ha":989,"x_min":34,"x_max":907,"o":"m 477 1691 q 193 1468 367 1630 l 34 1686 q 477 2027 259 1899 q 907 1774 690 1936 l 749 1508 q 477 1691 587 1639 z "},"_":{"ha":1270,"x_min":34,"x_max":1189,"o":"m 1174 423 q 1177 48 1189 266 q 34 -58 1148 36 l 34 310 q 1174 423 71 330 z "},"`":{"ha":785,"x_min":34,"x_max":703,"o":"m 703 1756 q 568 1483 653 1622 q 34 1721 335 1571 l 172 1987 q 703 1756 292 1961 z "},"a":{"ha":1442,"x_min":0,"x_max":0,"o":""},"b":{"ha":1273,"x_min":0,"x_max":0,"o":""},"c":{"ha":1088,"x_min":0,"x_max":0,"o":""},"d":{"ha":705,"x_min":0,"x_max":0,"o":""},"e":{"ha":1267,"x_min":0,"x_max":0,"o":""},"f":{"ha":1423,"x_min":0,"x_max":0,"o":""},"g":{"ha":610,"x_min":0,"x_max":0,"o":""},"h":{"ha":1282,"x_min":0,"x_max":0,"o":""},"i":{"ha":728,"x_min":0,"x_max":0,"o":""},"j":{"ha":1428,"x_min":0,"x_max":0,"o":""},"k":{"ha":696,"x_min":0,"x_max":0,"o":""},"l":{"ha":354,"x_min":0,"x_max":0,"o":""},"m":{"ha":1064,"x_min":0,"x_max":0,"o":""},"n":{"ha":751,"x_min":0,"x_max":0,"o":""},"o":{"ha":685,"x_min":0,"x_max":0,"o":""},"p":{"ha":685,"x_min":0,"x_max":0,"o":""},"q":{"ha":694,"x_min":0,"x_max":0,"o":""},"r":{"ha":469,"x_min":0,"x_max":0,"o":""},"s":{"ha":476,"x_min":0,"x_max":0,"o":""},"t":{"ha":457,"x_min":0,"x_max":0,"o":""},"u":{"ha":718,"x_min":0,"x_max":0,"o":""},"v":{"ha":673,"x_min":0,"x_max":0,"o":""},"w":{"ha":960,"x_min":0,"x_max":0,"o":""},"x":{"ha":685,"x_min":0,"x_max":0,"o":""},"y":{"ha":589,"x_min":0,"x_max":0,"o":""},"z":{"ha":493,"x_min":0,"x_max":0,"o":""},"{":{"ha":982,"x_min":0,"x_max":0,"o":""},"|":{"ha":567,"x_min":34,"x_max":470,"o":"m 459 1548 q 460 -50 470 1444 q 42 -85 446 -53 q 35 1499 34 -39 q 459 1548 323 1557 z "},"}":{"ha":688,"x_min":0,"x_max":0,"o":""},"~":{"ha":1044,"x_min":34,"x_max":962,"o":"m 935 2039 q 825 1643 962 1759 q 608 1569 736 1574 q 400 1673 465 1563 q 303 1721 355 1775 q 347 1562 258 1657 q 115 1522 322 1517 q 142 1855 34 1677 q 372 1994 222 1975 q 582 1904 536 2009 q 682 1807 621 1793 q 718 1849 705 1812 q 677 2009 730 1922 q 935 2039 710 2057 z "},"¡":{"ha":612,"x_min":34,"x_max":531,"o":"m 173 1468 q 240 1491 173 1468 q 397 1474 308 1513 q 505 1343 477 1438 q 404 1128 530 1219 q 179 1111 304 1072 q 39 1278 54 1149 q 173 1468 38 1423 m 531 -20 q 34 -60 308 -54 q 71 1025 47 681 q 106 1026 106 1038 q 476 1057 290 1047 q 531 -20 498 751 z "},"¢":{"ha":1343,"x_min":34,"x_max":1093,"o":"m 849 1287 q 998 1239 923 1272 q 1075 1192 1053 1208 q 853 826 955 940 q 771 862 812 848 q 686 406 735 667 q 884 503 783 432 q 1093 203 963 429 q 998 113 1063 170 q 627 -14 827 -5 l 606 -14 q 584 -130 595 -71 q 395 -137 574 -133 q 418 8 395 -124 q 34 580 35 101 q 83 819 41 697 q 423 1221 176 1079 q 655 1295 538 1282 q 676 1409 665 1352 q 872 1428 776 1437 q 849 1287 869 1402 m 573 854 q 448 718 500 816 q 470 469 392 583 q 497 441 483 454 q 573 854 530 621 z "},"£":{"ha":1278,"x_min":36,"x_max":1253,"o":"m 145 1012 q 236 1302 148 1165 q 1253 1455 517 1707 l 1166 1078 q 589 1053 608 1197 l 591 795 q 799 812 686 803 q 802 505 811 684 q 593 482 789 500 l 593 410 q 1167 459 949 448 q 1163 47 1173 237 q 153 -47 804 -5 q 146 443 148 176 q 36 434 93 439 l 36 735 q 144 752 47 741 q 145 1005 144 875 l 145 1012 z "},"¤":{"ha":1318,"x_min":42,"x_max":1266,"o":"m 842 850 q 684 954 806 962 q 517 870 581 951 q 481 666 446 768 q 644 567 536 554 q 829 722 772 589 q 842 850 857 791 m 181 869 q 42 964 115 914 l 274 1249 q 379 1189 288 1246 q 732 1305 515 1291 q 857 1299 798 1310 q 935 1393 895 1344 l 1241 1187 q 1140 1047 1237 1171 q 1164 934 1158 994 q 1132 652 1177 798 q 1127 640 1130 646 q 1266 545 1193 595 q 1032 252 1179 414 q 900 335 1021 256 q 494 242 705 193 q 414 144 455 195 q 99 352 273 221 q 197 481 104 363 q 178 532 186 505 q 156 718 153 624 q 181 869 163 799 z "},"¥":{"ha":1469,"x_min":34,"x_max":1388,"o":"m 517 707 l 511 707 q 513 710 512 709 q 34 1192 262 951 l 389 1512 q 757 1156 539 1352 q 956 1539 864 1382 q 1388 1405 1234 1495 q 1035 741 1205 1052 q 1036 699 1035 720 q 1134 707 1083 703 q 1137 416 1145 585 q 1038 404 1128 412 q 1031 18 1038 164 q 532 -26 809 -15 q 519 357 524 168 q 410 348 467 353 l 410 634 q 517 650 420 640 l 517 707 z "},"¦":{"ha":471,"x_min":36,"x_max":404,"o":"m 391 1493 q 393 785 404 960 q 51 751 241 760 q 43 1461 36 1143 q 391 1493 227 1496 m 391 668 q 393 -41 404 134 q 51 -74 241 -66 q 43 635 36 318 q 391 668 227 671 z "},"§":{"ha":962,"x_min":35,"x_max":930,"o":"m 828 558 q 882 465 872 511 q 815 118 930 270 q 84 60 595 -156 l 165 323 q 578 332 590 201 q 495 382 569 386 q 363 387 425 380 q 203 444 264 395 q 103 578 117 512 q 136 873 64 741 q 82 966 92 920 q 149 1314 35 1161 q 880 1373 369 1588 l 800 1107 q 387 1099 374 1230 q 469 1049 395 1046 q 601 1044 539 1051 q 761 987 700 1037 q 861 854 847 920 q 828 558 901 691 m 477 661 q 557 720 561 669 q 482 770 549 770 q 408 711 404 762 q 477 661 414 664 z "},"¨":{"ha":1009,"x_min":34,"x_max":928,"o":"m 898 1906 q 913 1853 898 1906 q 884 1725 928 1801 q 753 1627 844 1657 q 562 1691 635 1596 q 565 1872 517 1767 q 732 1999 612 1976 q 898 1906 867 2012 m 414 1863 q 429 1810 414 1863 q 400 1681 444 1757 q 270 1584 361 1614 q 79 1647 152 1552 q 81 1828 34 1724 q 248 1955 128 1933 q 414 1863 384 1969 z "},"©":{"ha":1515,"x_min":71,"x_max":1437,"o":"m 317 134 q 104 438 168 239 q 74 686 71 562 q 843 1471 142 1427 q 1316 1274 1131 1495 q 1420 975 1404 1140 q 1377 600 1437 794 q 1173 264 1301 387 q 317 134 770 -115 m 1098 906 q 802 1101 1030 1117 q 488 943 608 1095 q 420 560 355 751 q 726 374 525 351 q 1074 665 966 417 q 1098 906 1125 795 m 839 822 q 751 846 795 846 q 650 772 689 842 q 661 656 625 709 q 754 625 694 616 q 853 672 802 637 q 950 533 890 637 q 906 491 937 517 q 734 432 827 436 q 459 707 460 432 q 481 819 462 762 q 640 1005 525 939 q 906 1013 768 1074 q 942 991 931 999 q 839 822 886 875 z "},"ª":{"ha":439,"x_min":0,"x_max":0,"o":""},"«":{"ha":640,"x_min":0,"x_max":0,"o":""},"¬":{"ha":688,"x_min":0,"x_max":0,"o":""},"®":{"ha":1515,"x_min":71,"x_max":1437,"o":"m 317 134 q 104 438 168 239 q 74 686 71 562 q 843 1471 142 1427 q 1316 1274 1131 1495 q 1420 975 1404 1140 q 1377 600 1437 794 q 1173 264 1301 387 q 317 134 770 -115 m 1098 906 q 802 1101 1030 1117 q 488 943 608 1095 q 420 560 355 751 q 726 374 525 351 q 1074 665 966 417 q 1098 906 1125 795 m 709 738 q 817 797 807 747 q 793 872 824 854 q 707 875 768 885 q 709 738 709 810 m 888 665 q 965 562 920 622 q 859 475 923 522 q 756 608 852 480 q 709 605 734 606 q 708 513 708 562 q 552 498 644 500 q 551 996 545 770 q 680 1017 563 1004 q 827 1017 762 1027 q 961 840 958 990 q 888 665 960 726 z "},"¯":{"ha":454,"x_min":0,"x_max":0,"o":""},"°":{"ha":703,"x_min":34,"x_max":621,"o":"m 165 1676 q 280 1760 205 1726 q 412 1787 348 1787 q 526 1759 473 1786 q 614 1591 614 1697 q 357 1291 621 1339 q 266 1293 311 1285 q 146 1362 190 1310 q 165 1676 34 1516 m 355 1568 q 326 1525 328 1553 q 349 1496 324 1504 q 385 1506 367 1489 q 399 1544 400 1520 q 378 1574 398 1569 q 355 1568 368 1575 z "},"±":{"ha":688,"x_min":0,"x_max":0,"o":""},"²":{"ha":688,"x_min":0,"x_max":0,"o":""},"³":{"ha":688,"x_min":0,"x_max":0,"o":""},"´":{"ha":785,"x_min":34,"x_max":703,"o":"m 34 1695 q 566 2022 445 1975 l 703 1782 q 169 1447 401 1577 q 34 1695 84 1570 z "},"µ":{"ha":800,"x_min":0,"x_max":0,"o":""},"¶":{"ha":694,"x_min":0,"x_max":0,"o":""},"·":{"ha":607,"x_min":37,"x_max":529,"o":"m 172 637 q 105 648 172 637 q 39 804 37 658 q 178 997 53 935 q 403 1019 303 1059 q 504 823 529 951 q 397 673 476 722 q 172 637 307 617 z "},"¸":{"ha":810,"x_min":34,"x_max":729,"o":"m 540 -37 q 718 -210 705 -87 q 509 -505 729 -395 q 323 -538 421 -538 q 34 -334 149 -529 q 215 -210 78 -298 q 428 -288 330 -379 q 376 -204 475 -233 q 203 -195 311 -186 q 201 96 198 -62 q 447 121 312 111 q 444 -15 441 50 q 540 -37 465 -18 z "},"¹":{"ha":688,"x_min":0,"x_max":0,"o":""},"º":{"ha":487,"x_min":0,"x_max":0,"o":""},"»":{"ha":640,"x_min":0,"x_max":0,"o":""},"¼":{"ha":1158,"x_min":0,"x_max":0,"o":""},"½":{"ha":1332,"x_min":0,"x_max":0,"o":""},"¾":{"ha":1158,"x_min":0,"x_max":0,"o":""},"¿":{"ha":1442,"x_min":34,"x_max":1360,"o":"m 437 -32 q 54 473 34 109 q 566 950 86 785 q 572 1106 571 987 q 996 1140 798 1128 q 999 692 1001 1043 q 680 614 804 673 q 551 404 431 507 q 1270 521 770 254 q 1360 178 1308 492 q 437 -32 945 -147 m 879 1547 q 946 1537 879 1547 q 1013 1381 1014 1527 q 873 1188 998 1250 q 648 1165 748 1126 q 547 1362 522 1233 q 654 1512 575 1462 q 879 1547 744 1567 z "},"À":{"ha":1518,"x_min":34,"x_max":1436,"o":"m 534 106 q 498 -60 516 23 q 34 -30 158 -81 q 450 1442 330 1080 q 949 1488 728 1506 q 1436 83 1200 840 q 959 -24 1326 21 q 911 138 935 60 q 534 106 760 125 m 800 512 q 705 802 743 693 q 627 496 664 648 l 800 512 m 1008 1775 q 872 1502 958 1640 q 338 1740 640 1590 l 476 2005 q 1008 1775 596 1980 z "},"Á":{"ha":1518,"x_min":34,"x_max":1436,"o":"m 534 106 q 498 -60 516 23 q 34 -30 158 -81 q 450 1442 330 1080 q 949 1488 728 1506 q 1436 83 1200 840 q 959 -24 1326 21 q 911 138 935 60 q 534 106 760 125 m 800 512 q 705 802 743 693 q 627 496 664 648 l 800 512 m 338 1714 q 870 2041 750 1994 l 1008 1801 q 474 1466 707 1596 q 338 1714 389 1589 z "},"Â":{"ha":1518,"x_min":34,"x_max":1436,"o":"m 534 106 q 498 -60 516 23 q 34 -30 158 -81 q 450 1442 330 1080 q 949 1488 728 1506 q 1436 83 1200 840 q 959 -24 1326 21 q 911 138 935 60 q 534 106 760 125 m 800 512 q 705 802 743 693 q 627 496 664 648 l 800 512 m 711 1688 q 427 1466 602 1627 l 269 1683 q 711 2024 494 1896 q 1142 1771 925 1933 l 983 1506 q 711 1688 822 1636 z "},"Ã":{"ha":1518,"x_min":34,"x_max":1436,"o":"m 534 106 q 498 -60 516 23 q 34 -30 158 -81 q 450 1442 330 1080 q 949 1488 728 1506 q 1436 83 1200 840 q 959 -24 1326 21 q 911 138 935 60 q 534 106 760 125 m 800 512 q 705 802 743 693 q 627 496 664 648 l 800 512 m 1122 2034 q 1012 1639 1149 1755 q 795 1565 923 1570 q 587 1668 652 1559 q 490 1716 542 1770 q 534 1557 445 1652 q 302 1517 509 1513 q 329 1850 221 1673 q 559 1990 410 1971 q 769 1899 724 2005 q 869 1803 808 1788 q 905 1845 892 1808 q 865 2005 917 1917 q 1122 2034 897 2052 z "},"Ä":{"ha":1518,"x_min":34,"x_max":1436,"o":"m 534 106 q 498 -60 516 23 q 34 -30 158 -81 q 450 1442 330 1080 q 949 1488 728 1506 q 1436 83 1200 840 q 959 -24 1326 21 q 911 138 935 60 q 534 106 760 125 m 800 512 q 705 802 743 693 q 627 496 664 648 l 800 512 m 1112 1903 q 1127 1850 1112 1903 q 1098 1721 1142 1797 q 968 1624 1059 1654 q 777 1687 850 1592 q 779 1868 732 1763 q 946 1995 826 1973 q 1112 1903 1082 2009 m 628 1860 q 643 1807 628 1860 q 614 1678 659 1754 q 484 1580 575 1611 q 293 1644 366 1549 q 295 1825 248 1720 q 463 1952 342 1929 q 628 1860 598 1965 z "},"Å":{"ha":1518,"x_min":34,"x_max":1436,"o":"m 534 106 q 498 -60 516 23 q 34 -30 158 -81 q 450 1442 330 1080 q 949 1488 728 1506 q 1436 83 1200 840 q 959 -24 1326 21 q 911 138 935 60 q 534 106 760 125 m 800 512 q 705 802 743 693 q 627 496 664 648 l 800 512 m 494 1910 q 609 1994 534 1960 q 741 2022 677 2021 q 854 1994 802 2021 q 943 1825 943 1931 q 686 1525 950 1573 q 595 1527 640 1519 q 475 1596 519 1544 q 494 1910 363 1750 m 684 1803 q 654 1758 656 1787 q 678 1730 653 1739 q 713 1740 696 1724 q 728 1779 729 1755 q 707 1808 727 1803 q 684 1803 697 1810 z "},"Æ":{"ha":2087,"x_min":34,"x_max":2015,"o":"m 800 487 q 705 777 743 667 q 627 471 664 623 l 800 487 m 981 -47 q 959 -50 970 -49 q 911 113 935 35 q 534 80 760 100 q 498 -85 516 -3 q 34 -56 158 -106 q 450 1417 330 1054 q 949 1462 728 1480 q 970 1407 960 1435 q 1996 1506 1557 1489 q 1994 1100 2013 1295 l 1396 1044 l 1398 902 l 1972 951 l 1973 563 q 1404 510 1938 555 l 1404 376 q 1998 435 1962 438 q 1999 41 2015 198 q 981 -47 1637 -15 z "},"Ç":{"ha":1343,"x_min":34,"x_max":1261,"o":"m 574 -5 q 34 675 36 64 q 90 952 42 810 q 486 1419 199 1253 q 1152 1439 808 1589 q 1241 1384 1215 1402 q 984 960 1102 1093 q 763 1022 874 1021 q 513 835 609 1012 q 539 547 449 678 q 772 469 622 446 q 1019 585 893 497 q 1261 238 1112 500 q 1152 134 1227 199 q 818 -4 995 26 q 819 -32 818 -18 q 914 -54 839 -35 q 1093 -227 1079 -105 q 884 -523 1103 -412 q 697 -556 795 -556 q 408 -352 523 -547 q 589 -228 452 -316 q 802 -305 705 -397 q 751 -221 849 -250 q 577 -213 686 -203 q 574 -5 574 -116 z "},"È":{"ha":1186,"x_min":34,"x_max":1105,"o":"m 1086 1520 q 1084 1115 1103 1310 l 486 1059 l 488 917 l 1062 966 l 1063 578 q 494 525 1028 570 l 494 391 q 1088 450 1052 453 q 1088 56 1105 213 q 56 -33 723 -1 q 53 1421 34 627 q 1086 1520 644 1504 m 878 1778 q 742 1506 827 1643 q 208 1744 509 1594 l 346 2009 q 878 1778 466 1983 z "},"É":{"ha":1186,"x_min":34,"x_max":1105,"o":"m 1086 1520 q 1084 1115 1103 1310 l 486 1059 l 488 917 l 1062 966 l 1063 578 q 494 525 1028 570 l 494 391 q 1088 450 1052 453 q 1088 56 1105 213 q 56 -33 723 -1 q 53 1421 34 627 q 1086 1520 644 1504 m 302 1726 q 833 2053 713 2005 l 971 1812 q 437 1478 670 1608 q 302 1726 352 1600 z "},"Ê":{"ha":1186,"x_min":34,"x_max":1105,"o":"m 1086 1520 q 1084 1115 1103 1310 l 486 1059 l 488 917 l 1062 966 l 1063 578 q 494 525 1028 570 l 494 391 q 1088 450 1052 453 q 1088 56 1105 213 q 56 -33 723 -1 q 53 1421 34 627 q 1086 1520 644 1504 m 588 1691 q 304 1470 478 1631 l 145 1687 q 588 2028 370 1900 q 1019 1775 802 1938 l 860 1509 q 588 1691 699 1640 z "},"Ë":{"ha":1186,"x_min":34,"x_max":1105,"o":"m 1086 1520 q 1084 1115 1103 1310 l 486 1059 l 488 917 l 1062 966 l 1063 578 q 494 525 1028 570 l 494 391 q 1088 450 1052 453 q 1088 56 1105 213 q 56 -33 723 -1 q 53 1421 34 627 q 1086 1520 644 1504 m 1022 1910 q 1037 1857 1022 1910 q 1008 1728 1052 1804 q 878 1630 968 1661 q 686 1694 760 1599 q 689 1875 642 1770 q 856 2002 736 1980 q 1022 1910 991 2016 m 538 1866 q 553 1813 538 1866 q 524 1685 568 1761 q 394 1587 485 1617 q 203 1651 276 1556 q 205 1831 158 1727 q 372 1959 252 1936 q 538 1866 508 1972 z "},"Ì":{"ha":657,"x_min":-22,"x_max":647,"o":"m 536 1493 q 538 24 553 777 q 80 -20 335 -9 q 70 1451 60 506 q 536 1493 316 1497 m 647 1781 q 511 1508 597 1647 q -22 1746 279 1596 l 115 2012 q 647 1781 235 1986 z "},"Í":{"ha":608,"x_min":-21,"x_max":648,"o":"m 510 1493 q 513 24 527 777 q 54 -20 309 -9 q 44 1450 34 506 q 510 1493 290 1497 m -21 1721 q 511 2047 391 1999 l 648 1807 q 115 1472 347 1603 q -21 1721 29 1595 z "},"Î":{"ha":774,"x_min":-56,"x_max":818,"o":"m 599 1494 q 602 24 616 777 q 143 -20 398 -9 q 133 1451 123 507 q 599 1494 379 1497 m 387 1692 q 103 1470 277 1631 l -56 1687 q 387 2028 170 1900 q 818 1775 601 1938 l 659 1510 q 387 1692 498 1641 z "},"Ï":{"ha":748,"x_min":-9,"x_max":794,"o":"m 584 1494 q 587 24 601 777 q 128 -20 383 -9 q 118 1451 108 507 q 584 1494 364 1497 m 764 1904 q 779 1851 764 1904 q 750 1722 794 1798 q 620 1624 711 1655 q 429 1688 502 1593 q 431 1869 384 1764 q 598 1996 478 1973 q 764 1904 734 2009 m 371 1868 q 386 1815 371 1868 q 357 1687 401 1763 q 227 1589 318 1619 q 36 1653 109 1558 q 38 1833 -9 1729 q 205 1961 85 1938 q 371 1868 341 1974 z "},"Ð":{"ha":1029,"x_min":0,"x_max":0,"o":""},"Ñ":{"ha":1459,"x_min":34,"x_max":1378,"o":"m 1086 2033 q 975 1638 1113 1754 q 758 1564 886 1569 q 551 1668 615 1558 q 454 1716 505 1769 q 498 1556 408 1651 q 266 1516 473 1512 q 292 1849 184 1672 q 523 1990 373 1970 q 732 1898 687 2004 q 832 1802 771 1788 q 869 1844 856 1807 q 828 2004 880 1917 q 1086 2033 861 2051 m 47 1390 l 463 1492 q 895 865 655 1239 q 889 1460 882 1103 q 1356 1457 1205 1488 q 1356 35 1378 651 q 1006 -52 1139 -52 q 502 644 812 241 l 503 -51 q 47 -45 135 -68 q 47 1390 34 587 z "},"Ò":{"ha":1597,"x_min":34,"x_max":1516,"o":"m 302 69 q 70 399 140 183 q 37 669 34 534 q 871 1520 111 1472 q 1385 1306 1183 1546 q 1497 982 1480 1161 q 1451 575 1516 786 q 1230 210 1368 345 q 302 69 793 -200 m 1031 861 q 803 1012 979 1024 q 560 890 653 1007 q 508 594 458 741 q 744 451 589 433 q 1013 675 929 484 q 1031 861 1052 776 m 1253 1793 q 1117 1520 1202 1659 q 583 1758 884 1609 l 721 2024 q 1253 1793 841 1999 z "},"Ó":{"ha":1597,"x_min":34,"x_max":1516,"o":"m 302 69 q 70 399 140 183 q 37 669 34 534 q 871 1520 111 1472 q 1385 1306 1183 1546 q 1497 982 1480 1161 q 1451 575 1516 786 q 1230 210 1368 345 q 302 69 793 -200 m 1031 861 q 803 1012 979 1024 q 560 890 653 1007 q 508 594 458 741 q 744 451 589 433 q 1013 675 929 484 q 1031 861 1052 776 m 395 1716 q 926 2043 806 1995 l 1064 1802 q 530 1468 763 1598 q 395 1716 445 1590 z "},"Ô":{"ha":1597,"x_min":34,"x_max":1516,"o":"m 302 69 q 70 399 140 183 q 37 669 34 534 q 871 1520 111 1472 q 1385 1306 1183 1546 q 1497 982 1480 1161 q 1451 575 1516 786 q 1230 210 1368 345 q 302 69 793 -200 m 1031 861 q 803 1012 979 1024 q 560 890 653 1007 q 508 594 458 741 q 744 451 589 433 q 1013 675 929 484 q 1031 861 1052 776 m 823 1694 q 539 1472 713 1634 l 380 1690 q 823 2030 606 1902 q 1254 1777 1037 1940 l 1095 1512 q 823 1694 934 1643 z "},"Õ":{"ha":1597,"x_min":34,"x_max":1516,"o":"m 302 69 q 70 399 140 183 q 37 669 34 534 q 871 1520 111 1472 q 1385 1306 1183 1546 q 1497 982 1480 1161 q 1451 575 1516 786 q 1230 210 1368 345 q 302 69 793 -200 m 1031 861 q 803 1012 979 1024 q 560 890 653 1007 q 508 594 458 741 q 744 451 589 433 q 1013 675 929 484 q 1031 861 1052 776 m 1200 2040 q 1090 1645 1227 1761 q 873 1571 1001 1576 q 665 1674 730 1565 q 568 1723 620 1776 q 612 1563 523 1658 q 380 1524 587 1519 q 407 1856 299 1679 q 637 1997 488 1977 q 847 1905 802 2011 q 947 1809 886 1795 q 983 1851 970 1814 q 943 2011 995 1923 q 1200 2040 975 2058 z "},"Ö":{"ha":1597,"x_min":34,"x_max":1516,"o":"m 302 69 q 70 399 140 183 q 37 669 34 534 q 871 1520 111 1472 q 1385 1306 1183 1546 q 1497 982 1480 1161 q 1451 575 1516 786 q 1230 210 1368 345 q 302 69 793 -200 m 1031 861 q 803 1012 979 1024 q 560 890 653 1007 q 508 594 458 741 q 744 451 589 433 q 1013 675 929 484 q 1031 861 1052 776 m 1187 1910 q 1202 1857 1187 1910 q 1173 1728 1217 1804 q 1043 1630 1134 1661 q 852 1694 925 1599 q 854 1875 807 1770 q 1021 2002 901 1980 q 1187 1910 1157 2016 m 704 1866 q 719 1813 704 1866 q 690 1685 734 1760 q 559 1586 650 1617 q 368 1651 441 1556 q 371 1831 323 1727 q 538 1958 418 1935 q 704 1866 673 1971 z "},"×":{"ha":1061,"x_min":20,"x_max":1010,"o":"m 800 746 q 1010 589 896 673 q 749 300 911 459 q 532 455 734 306 q 342 250 445 361 q 47 463 208 330 q 235 676 54 478 q 20 839 136 750 l 277 1119 q 503 966 299 1114 q 701 1177 593 1062 l 987 965 q 800 746 980 945 z "},"Ø":{"ha":1597,"x_min":34,"x_max":1516,"o":"m 678 984 q 560 890 610 954 q 508 594 458 741 q 556 521 530 551 q 678 984 610 724 m 987 944 q 869 498 935 746 q 1013 675 960 555 q 1031 861 1052 776 q 987 944 1015 911 m 424 12 q 302 69 363 35 q 70 399 140 183 q 37 669 34 534 q 818 1516 109 1443 q 862 1682 840 1596 q 1194 1740 1095 1750 q 1131 1489 1185 1699 q 1385 1306 1274 1438 q 1497 982 1480 1161 q 1451 575 1516 786 q 1230 210 1368 345 q 726 -36 987 -18 q 693 -161 710 -98 q 370 -203 682 -165 q 424 12 373 -186 z "},"Ù":{"ha":1435,"x_min":34,"x_max":1354,"o":"m 1320 1526 q 1326 759 1354 1095 q 883 14 1286 201 q 498 -35 699 -63 q 76 577 166 50 q 98 1419 34 983 q 512 1466 302 1453 q 559 610 500 796 q 700 484 607 470 q 855 640 806 498 q 894 1496 907 842 q 1320 1526 1119 1529 m 1008 1779 q 872 1506 958 1644 q 338 1744 640 1594 l 476 2009 q 1008 1779 596 1984 z "},"Ú":{"ha":1435,"x_min":34,"x_max":1354,"o":"m 1320 1526 q 1326 759 1354 1095 q 883 14 1286 201 q 498 -35 699 -63 q 76 577 166 50 q 98 1419 34 983 q 512 1466 302 1453 q 559 610 500 796 q 700 484 607 470 q 855 640 806 498 q 894 1496 907 842 q 1320 1526 1119 1529 m 344 1718 q 876 2045 755 1998 l 1013 1805 q 479 1470 712 1600 q 344 1718 394 1593 z "},"Û":{"ha":1435,"x_min":34,"x_max":1354,"o":"m 1320 1526 q 1326 759 1354 1095 q 883 14 1286 201 q 498 -35 699 -63 q 76 577 166 50 q 98 1419 34 983 q 512 1466 302 1453 q 559 610 500 796 q 700 484 607 470 q 855 640 806 498 q 894 1496 907 842 q 1320 1526 1119 1529 m 711 1691 q 427 1469 602 1631 l 269 1687 q 711 2028 494 1900 q 1142 1775 925 1938 l 983 1509 q 711 1691 822 1640 z "},"Ü":{"ha":1435,"x_min":34,"x_max":1354,"o":"m 1320 1526 q 1326 759 1354 1095 q 883 14 1286 201 q 498 -35 699 -63 q 76 577 166 50 q 98 1419 34 983 q 512 1466 302 1453 q 559 610 500 796 q 700 484 607 470 q 855 640 806 498 q 894 1496 907 842 q 1320 1526 1119 1529 m 1112 1906 q 1127 1853 1112 1906 q 1098 1725 1142 1801 q 968 1627 1059 1657 q 777 1691 850 1596 q 779 1872 732 1767 q 946 1999 826 1976 q 1112 1906 1082 2012 m 628 1863 q 643 1810 628 1863 q 614 1681 659 1757 q 484 1584 575 1614 q 293 1648 366 1552 q 295 1828 248 1724 q 463 1955 342 1933 q 628 1863 598 1969 z "},"Ý":{"ha":836,"x_min":0,"x_max":0,"o":""},"Þ":{"ha":760,"x_min":0,"x_max":0,"o":""},"ß":{"ha":848,"x_min":0,"x_max":0,"o":""},"à":{"ha":625,"x_min":0,"x_max":0,"o":""},"á":{"ha":625,"x_min":0,"x_max":0,"o":""},"â":{"ha":625,"x_min":0,"x_max":0,"o":""},"ã":{"ha":625,"x_min":0,"x_max":0,"o":""},"ä":{"ha":625,"x_min":0,"x_max":0,"o":""},"å":{"ha":625,"x_min":0,"x_max":0,"o":""},"æ":{"ha":986,"x_min":0,"x_max":0,"o":""},"ç":{"ha":614,"x_min":0,"x_max":0,"o":""},"è":{"ha":616,"x_min":0,"x_max":0,"o":""},"é":{"ha":616,"x_min":0,"x_max":0,"o":""},"ê":{"ha":616,"x_min":0,"x_max":0,"o":""},"ë":{"ha":616,"x_min":0,"x_max":0,"o":""},"ì":{"ha":349,"x_min":0,"x_max":0,"o":""},"í":{"ha":349,"x_min":0,"x_max":0,"o":""},"î":{"ha":349,"x_min":0,"x_max":0,"o":""},"ï":{"ha":349,"x_min":0,"x_max":0,"o":""},"ð":{"ha":772,"x_min":0,"x_max":0,"o":""},"ñ":{"ha":751,"x_min":0,"x_max":0,"o":""},"ò":{"ha":685,"x_min":0,"x_max":0,"o":""},"ó":{"ha":685,"x_min":0,"x_max":0,"o":""},"ô":{"ha":685,"x_min":0,"x_max":0,"o":""},"õ":{"ha":685,"x_min":0,"x_max":0,"o":""},"ö":{"ha":685,"x_min":0,"x_max":0,"o":""},"÷":{"ha":607,"x_min":34,"x_max":526,"o":"m 169 -58 q 101 -47 169 -58 q 35 109 34 -37 q 175 301 50 239 q 399 324 300 363 q 500 127 526 256 q 393 -22 473 27 q 169 -58 304 -78 m 169 510 q 101 520 169 510 q 35 676 34 530 q 175 869 50 807 q 399 892 300 931 q 500 695 526 824 q 393 545 473 595 q 169 510 304 490 z "},"ø":{"ha":685,"x_min":0,"x_max":0,"o":""},"ù":{"ha":718,"x_min":0,"x_max":0,"o":""},"ú":{"ha":718,"x_min":0,"x_max":0,"o":""},"û":{"ha":718,"x_min":0,"x_max":0,"o":""},"ü":{"ha":718,"x_min":0,"x_max":0,"o":""},"ý":{"ha":589,"x_min":0,"x_max":0,"o":""},"þ":{"ha":685,"x_min":0,"x_max":0,"o":""},"ÿ":{"ha":589,"x_min":0,"x_max":0,"o":""},"ı":{"ha":349,"x_min":0,"x_max":0,"o":""},"ˆ":{"ha":989,"x_min":34,"x_max":907,"o":"m 477 1691 q 193 1468 367 1630 l 34 1686 q 477 2027 259 1899 q 907 1774 690 1936 l 749 1508 q 477 1691 587 1639 z "},"ˇ":{"ha":694,"x_min":0,"x_max":0,"o":""},"ˉ":{"ha":694,"x_min":0,"x_max":0,"o":""},"˘":{"ha":694,"x_min":0,"x_max":0,"o":""},"˙":{"ha":694,"x_min":0,"x_max":0,"o":""},"˚":{"ha":703,"x_min":34,"x_max":621,"o":"m 165 1839 q 280 1923 205 1889 q 412 1950 348 1950 q 526 1922 473 1949 q 614 1754 614 1860 q 357 1453 621 1502 q 266 1456 311 1448 q 146 1525 190 1472 q 165 1839 34 1679 m 355 1731 q 326 1687 328 1716 q 349 1659 324 1667 q 385 1668 367 1652 q 399 1707 400 1683 q 378 1737 398 1731 q 355 1731 368 1738 z "},"˛":{"ha":694,"x_min":0,"x_max":0,"o":""},"˜":{"ha":1044,"x_min":34,"x_max":962,"o":"m 935 2039 q 825 1643 962 1759 q 608 1569 736 1574 q 400 1673 465 1563 q 303 1721 355 1775 q 347 1562 258 1657 q 115 1522 322 1517 q 142 1855 34 1677 q 372 1994 222 1975 q 582 1904 536 2009 q 682 1807 621 1793 q 718 1849 705 1812 q 677 2009 730 1922 q 935 2039 710 2057 z "},"˝":{"ha":694,"x_min":0,"x_max":0,"o":""},"–":{"ha":751,"x_min":0,"x_max":0,"o":""},"—":{"ha":1389,"x_min":0,"x_max":0,"o":""},"‘":{"ha":378,"x_min":0,"x_max":0,"o":""},"’":{"ha":378,"x_min":0,"x_max":0,"o":""},"‚":{"ha":378,"x_min":0,"x_max":0,"o":""},"“":{"ha":617,"x_min":0,"x_max":0,"o":""},"”":{"ha":617,"x_min":0,"x_max":0,"o":""},"„":{"ha":617,"x_min":0,"x_max":0,"o":""},"†":{"ha":688,"x_min":0,"x_max":0,"o":""},"‡":{"ha":688,"x_min":0,"x_max":0,"o":""},"•":{"ha":694,"x_min":0,"x_max":0,"o":""},"…":{"ha":1389,"x_min":0,"x_max":0,"o":""},"‹":{"ha":428,"x_min":0,"x_max":0,"o":""},"›":{"ha":428,"x_min":0,"x_max":0,"o":""},"⁄":{"ha":232,"x_min":0,"x_max":0,"o":""},"₣":{"ha":688,"x_min":0,"x_max":0,"o":""},"₤":{"ha":688,"x_min":0,"x_max":0,"o":""},"₧":{"ha":1375,"x_min":0,"x_max":0,"o":""},"€":{"ha":1310,"x_min":34,"x_max":1229,"o":"m 600 543 q 1059 509 718 441 q 1229 92 1167 328 q 861 -1 1091 6 q 309 172 503 -10 q 139 502 186 288 q 34 493 88 498 l 34 671 q 115 682 44 674 q 113 724 113 702 l 34 717 l 34 895 q 124 907 45 898 q 234 1193 152 1089 q 854 1522 440 1475 q 1221 1510 1142 1544 q 1054 1074 1158 1259 q 597 951 686 1060 q 965 983 758 966 q 968 802 980 908 q 538 761 949 797 q 538 722 538 741 q 965 760 719 738 q 968 578 980 684 q 600 543 950 574 z "},"№":{"ha":1540,"x_min":0,"x_max":0,"o":""},"™":{"ha":1424,"x_min":39,"x_max":1318,"o":"m 421 1329 q 420 884 425 1040 q 220 869 281 863 q 218 1310 217 1078 q 48 1297 141 1304 q 47 1487 39 1379 q 599 1537 333 1519 q 597 1348 603 1449 q 421 1329 577 1342 m 833 1090 q 831 863 832 990 q 637 845 736 849 q 633 1462 626 1190 q 854 1516 758 1503 q 917 1367 875 1473 q 977 1230 958 1260 q 1094 1497 1010 1279 q 1310 1488 1190 1504 q 1311 866 1318 1226 q 1117 848 1222 852 q 1114 1070 1115 858 q 973 817 983 819 l 833 1090 z "},"∂":{"ha":688,"x_min":0,"x_max":0,"o":""},"∆":{"ha":733,"x_min":0,"x_max":0,"o":""},"∏":{"ha":1027,"x_min":0,"x_max":0,"o":""},"∑":{"ha":818,"x_min":0,"x_max":0,"o":""},"−":{"ha":688,"x_min":0,"x_max":0,"o":""},"√":{"ha":688,"x_min":0,"x_max":0,"o":""},"∞":{"ha":688,"x_min":0,"x_max":0,"o":""},"∫":{"ha":451,"x_min":0,"x_max":0,"o":""},"≈":{"ha":688,"x_min":0,"x_max":0,"o":""},"≤":{"ha":688,"x_min":0,"x_max":0,"o":""},"≥":{"ha":688,"x_min":0,"x_max":0,"o":""},"":{"ha":728,"x_min":0,"x_max":0,"o":""},"":{"ha":733,"x_min":0,"x_max":0,"o":""},"Œ":{"ha":2167,"x_min":34,"x_max":2114,"o":"m 1031 836 q 803 986 979 998 q 560 865 653 981 q 508 569 458 715 q 744 425 589 407 q 1013 650 929 458 q 1031 836 1052 750 m 1063 54 q 302 43 701 -175 q 70 374 140 157 q 37 643 34 508 q 871 1494 111 1446 q 1225 1419 1072 1511 q 2095 1498 1713 1484 q 2094 1093 2112 1287 l 1495 1036 l 1496 970 q 1497 956 1497 963 q 1501 895 1500 926 l 2071 944 l 2072 555 q 1503 503 2037 548 l 1503 369 q 2097 428 2061 431 q 2098 33 2114 191 q 1067 -63 1732 -23 q 1063 54 1065 -5 z "},"‰":{"ha":1818,"x_min":34,"x_max":1765,"o":"m 1166 1550 q 496 -47 1133 1446 q 129 -83 481 -50 q 787 1501 140 -37 q 1166 1550 929 1563 m 165 1337 q 280 1420 205 1386 q 412 1447 348 1447 q 526 1420 473 1447 q 614 1251 614 1358 q 357 951 621 1000 q 266 954 311 945 q 146 1022 190 970 q 165 1337 34 1177 m 355 1229 q 326 1185 328 1213 q 349 1156 324 1165 q 385 1166 367 1149 q 399 1205 400 1181 q 378 1234 398 1230 q 355 1229 368 1236 m 762 417 q 877 500 802 467 q 1008 528 945 528 q 1122 500 1069 528 q 1211 332 1211 439 q 954 31 1218 80 q 863 34 908 26 q 743 102 787 50 q 762 417 631 257 m 951 309 q 922 265 924 294 q 946 237 921 245 q 981 247 964 231 q 996 286 997 262 q 975 315 995 310 q 951 309 965 317 m 1308 417 q 1423 500 1349 467 q 1555 528 1491 528 q 1669 500 1616 528 q 1758 332 1758 439 q 1500 31 1765 80 q 1409 34 1455 26 q 1289 102 1333 50 q 1308 417 1177 257 m 1498 309 q 1469 265 1471 294 q 1493 237 1468 245 q 1528 247 1510 231 q 1542 286 1544 262 q 1521 315 1541 310 q 1498 309 1512 317 z "}}}
